<svg id="Layer_1" data-name="Layer 1" xmlns="http://www.w3.org/2000/svg" viewBox="0 0 565 567.1"><defs><style>.cls-1{fill:none;stroke:#222221;stroke-linecap:round;stroke-linejoin:round;stroke-width:12px;}</style></defs><title>1</title><polyline class="cls-1" points="51.5 388.8 52.9 115.6 135.4 114"/><line class="cls-1" x1="6" y1="558.9" x2="559" y2="560.6"/><polyline class="cls-1" points="166.6 557.3 168.1 6 379.9 6 381.3 558.9"/><line class="cls-1" x1="91.1" y1="150.8" x2="91.5" y2="194.5"/><line class="cls-1" x1="129.6" y1="150.9" x2="129.9" y2="194.6"/><line class="cls-1" x1="90.9" y1="228.4" x2="91.2" y2="272.2"/><line class="cls-1" x1="129.4" y1="228.5" x2="129.7" y2="272.3"/><line class="cls-1" x1="91" y1="304.9" x2="91.4" y2="348.7"/><line class="cls-1" x1="129.5" y1="305" x2="129.8" y2="348.8"/><line class="cls-1" x1="90.8" y1="382.6" x2="91.1" y2="426.3"/><line class="cls-1" x1="129.2" y1="382.7" x2="129.6" y2="426.4"/><line class="cls-1" x1="129.4" y1="460.1" x2="129.8" y2="503.8"/><polyline class="cls-1" points="495.7 387.5 494.3 114.4 410.8 112.7"/><line class="cls-1" x1="455.6" y1="149.5" x2="455.2" y2="193.3"/><line class="cls-1" x1="416.6" y1="149.6" x2="416.3" y2="193.4"/><line class="cls-1" x1="455.8" y1="227.2" x2="455.5" y2="270.9"/><line class="cls-1" x1="416.9" y1="227.3" x2="416.5" y2="271"/><line class="cls-1" x1="455.7" y1="303.7" x2="455.3" y2="347.4"/><line class="cls-1" x1="416.8" y1="303.8" x2="416.4" y2="347.5"/><line class="cls-1" x1="455.9" y1="381.3" x2="455.6" y2="425.1"/><line class="cls-1" x1="417" y1="381.4" x2="416.6" y2="425.2"/><line class="cls-1" x1="197.3" y1="51.1" x2="235.4" y2="51.2"/><line class="cls-1" x1="197.2" y1="95.7" x2="235.2" y2="95.8"/><line class="cls-1" x1="197.6" y1="138.8" x2="235.6" y2="139"/><line class="cls-1" x1="197.5" y1="183.4" x2="235.5" y2="183.6"/><line class="cls-1" x1="197.1" y1="227.4" x2="235.1" y2="227.6"/><line class="cls-1" x1="197" y1="272.1" x2="235" y2="272.2"/><line class="cls-1" x1="197.4" y1="315.2" x2="235.4" y2="315.3"/><line class="cls-1" x1="197.3" y1="359.8" x2="235.3" y2="360"/><line class="cls-1" x1="254.8" y1="50.5" x2="292.8" y2="50.7"/><line class="cls-1" x1="254.7" y1="95.1" x2="292.7" y2="95.3"/><line class="cls-1" x1="255.1" y1="138.3" x2="293.1" y2="138.4"/><line class="cls-1" x1="254.9" y1="182.9" x2="293" y2="183"/><line class="cls-1" x1="254.6" y1="226.9" x2="292.6" y2="227"/><line class="cls-1" x1="254.4" y1="271.5" x2="292.5" y2="271.7"/><line class="cls-1" x1="254.9" y1="314.6" x2="292.9" y2="314.8"/><line class="cls-1" x1="254.7" y1="359.3" x2="292.8" y2="359.4"/><line class="cls-1" x1="312.3" y1="50.2" x2="350.3" y2="50.3"/><line class="cls-1" x1="312.1" y1="94.8" x2="350.2" y2="95"/><line class="cls-1" x1="312.6" y1="138" x2="350.6" y2="138.1"/><line class="cls-1" x1="312.4" y1="182.6" x2="350.4" y2="182.7"/><line class="cls-1" x1="312.1" y1="226.6" x2="350.1" y2="226.7"/><line class="cls-1" x1="311.9" y1="271.2" x2="350" y2="271.4"/><line class="cls-1" x1="312.3" y1="314.3" x2="350.4" y2="314.5"/><line class="cls-1" x1="312.2" y1="359" x2="350.2" y2="359.1"/><line class="cls-1" x1="197.3" y1="405.4" x2="235.3" y2="405.5"/><line class="cls-1" x1="197.1" y1="450" x2="235.2" y2="450.2"/><line class="cls-1" x1="254.7" y1="404.8" x2="292.8" y2="405"/><line class="cls-1" x1="254.6" y1="449.5" x2="292.6" y2="449.6"/><line class="cls-1" x1="312.2" y1="404.5" x2="350.2" y2="404.7"/><line class="cls-1" x1="312.1" y1="449.2" x2="350.1" y2="449.3"/><path class="cls-1" d="M249.7,575.4V516.1s1-7.6,11.8-7.5h54.9s9.4-1,9.6,7.2.3,59.1.3,59.1" transform="translate(-15.2 -15.2)"/><line class="cls-1" x1="52.2" y1="558.9" x2="51.9" y2="493.6"/><path class="cls-1" d="M66.4,527.8S36,540.7,30.1,509.7s16.5-36.8,16.5-36.8,8.6-2.4,6.4-10.7,2.7-23,13.1-20.8c4,0,13.9,1.8,17.1,15.6.8,3.4,1.3,6.7,5,7.4s24.8,3,15,26.6c-.8,3.4-3.5,6.2-.6,12s10.4,23.3-5.3,35.9S66.4,527.8,66.4,527.8Z" transform="translate(-15.2 -15.2)"/><line class="cls-1" x1="522.5" y1="560.1" x2="522.2" y2="481.8"/><path class="cls-1" d="M537.1,542.3s-59.7-19.1-4.6-107.7c1.5-1.9,6.9-6.4,11.5-.1S602.1,528.6,537.1,542.3Z" transform="translate(-15.2 -15.2)"/><line class="cls-1" x1="436.7" y1="561.1" x2="436.4" y2="495.8"/><ellipse class="cls-1" cx="436" cy="495.9" rx="32.3" ry="37.2"/></svg>