<svg id="Layer_1" data-name="Layer 1" xmlns="http://www.w3.org/2000/svg" viewBox="0 0 573.5 584.3"><defs><style>.cls-1{fill:none;stroke:#222221;stroke-linecap:round;stroke-linejoin:round;stroke-width:11.95px;}</style></defs><title>2</title><rect class="cls-1" x="22" y="540.7" width="531.7" height="37.67"/><polyline class="cls-1" points="529.3 540.7 529.3 502.3 509.6 502.3 419.8 502.3 391.1 502.3 301.3 502.3 269.9 502.3 180.1 502.3 151.4 502.3 61.6 502.3 47 502.3 47 540.7"/><polyline class="cls-1" points="61.6 502.3 61.6 466.8 80.8 466.8 80.8 466.8 133.8 466.8 133.8 466.8 151.4 466.8 151.4 502.3"/><polyline class="cls-1" points="150.7 234.2 150.7 275.6 61 275.6 61 234.2"/><polyline class="cls-1" points="44.9 197.2 44.9 234.2 61 234.2 150.7 234.2 179.4 234.2 269.2 234.2 300.6 234.2 390.4 234.2 419.1 234.2 508.9 234.2 527.2 234.2 527.2 196.6"/><line class="cls-1" x1="80.8" y1="466.8" x2="80.1" y2="298.5"/><line class="cls-1" x1="133.8" y1="466.8" x2="133.2" y2="298.5"/><polyline class="cls-1" points="180.1 502.3 180.1 468.5 199.2 468.5 199.2 468.5 252.3 468.5 252.3 468.5 269.9 468.5 269.9 502.3"/><polyline class="cls-1" points="269.2 234.2 269.2 277.2 179.4 277.2 179.4 234.2"/><line class="cls-1" x1="199.2" y1="468.5" x2="198.6" y2="300.1"/><line class="cls-1" x1="252.3" y1="468.5" x2="251.6" y2="300.1"/><polyline class="cls-1" points="391.1 502.3 391.1 468.2 373.5 468.2 320.4 468.2 301.3 468.2 301.3 502.3"/><polyline class="cls-1" points="390.4 234.2 390.4 276.9 300.6 276.9 300.6 234.2"/><line class="cls-1" x1="320.4" y1="468.2" x2="319.7" y2="299.8"/><line class="cls-1" x1="373.5" y1="468.2" x2="372.8" y2="299.8"/><polyline class="cls-1" points="509.6 502.3 509.6 469.9 492 469.9 438.9 469.9 419.8 469.9 419.8 502.3"/><polyline class="cls-1" points="508.9 234.2 508.9 278.6 419.1 278.6 419.1 234.2"/><line class="cls-1" x1="438.9" y1="469.9" x2="438.2" y2="301.5"/><line class="cls-1" x1="492" y1="469.9" x2="491.3" y2="301.5"/><ellipse class="cls-1" cx="287.1" cy="124.9" rx="37.6" ry="39.9"/><polygon class="cls-1" points="6 197.3 567.6 196.5 566.9 175.8 287.1 6 6 175.8 6 197.3"/></svg>