<svg id="Layer_1" data-name="Layer 1" xmlns="http://www.w3.org/2000/svg" viewBox="0 0 593.3 584.7"><defs><style>.cls-1,.cls-2{fill:none;stroke:#1f1f1e;stroke-linecap:round;stroke-linejoin:round;}.cls-1{stroke-width:12.3px;}.cls-2{stroke-width:11.28px;}</style></defs><title>3</title><line class="cls-1" x1="13.1" y1="576.1" x2="578.5" y2="578.6"/><line class="cls-1" x1="450.9" y1="354.2" x2="331.5" y2="354.2"/><line class="cls-1" x1="332.3" y1="493.2" x2="331.5" y2="354.2"/><line class="cls-1" x1="450.9" y1="353.3" x2="451.7" y2="493.6"/><line class="cls-1" x1="331.9" y1="493.2" x2="452.1" y2="493.2"/><line class="cls-1" x1="154.3" y1="576.7" x2="154.2" y2="353.9"/><line class="cls-1" x1="287.6" y1="577.3" x2="287.6" y2="353.4"/><line class="cls-1" x1="287.6" y1="353.4" x2="154.2" y2="353.9"/><line class="cls-1" x1="503" y1="578.2" x2="502.9" y2="237"/><line class="cls-1" x1="90.4" y1="576.4" x2="90.3" y2="237.7"/><path class="cls-1" d="M298,82.9,486.9,223.5,505.1,237l36.1,26.9s23.6,13.7,40.6-6.6,0-40,0-40l-84.3-62.8-19.1-14.3L427.1,102,409.2,88.6,298.6,6.1" transform="translate(-2.1 0)"/><path class="cls-1" d="M298.6,6.1,16.4,217.9S-.9,239.2,14.9,257s26.4,13.2,37.5,10.8l40.1-30.2,16.4-12.3L298,82.9" transform="translate(-2.1 0)"/><path class="cls-1" d="M267.4,488l-.4-23.8s-.1-8.5-8.5-8.1-9,7.6-9,7.6l.4,23.8a8.3,8.3,0,0,0,8.6,6.7C265.9,494,267.4,488,267.4,488Z" transform="translate(-2.1 0)"/><line class="cls-1" x1="408.1" y1="28.8" x2="407.1" y2="88.7"/><line class="cls-1" x1="495.6" y1="29.3" x2="495.4" y2="154.5"/><line class="cls-1" x1="495.6" y1="29.3" x2="408.1" y2="28.8"/><path class="cls-1" d="M307.3,141.6l104.2,89.9s12.8,11.7-3.8,17.8l-212.5.3c-12.6-2.7-5.8-16-5.8-16l100-91S298.8,132.1,307.3,141.6Z" transform="translate(-2.1 0)"/><line class="cls-1" x1="295.6" y1="140.3" x2="294.5" y2="246.5"/><line class="cls-2" x1="393.5" y1="354.2" x2="393.5" y2="492.8"/><line class="cls-2" x1="335" y1="423.5" x2="449.1" y2="422"/></svg>