<svg id="Layer_1" data-name="Layer 1" xmlns="http://www.w3.org/2000/svg" viewBox="0 0 178.1 220.9"><defs><style>.cls-1{fill:none;stroke:#222221;stroke-linecap:round;stroke-linejoin:round;stroke-width:4.95px;}</style></defs><title>4</title><ellipse class="cls-1" cx="132.2" cy="92.6" rx="43.5" ry="41.8"/><path class="cls-1" d="M479.6,444.7a44,44,0,0,0,20.5-18.5,41.2,41.2,0,0,0,5.1-19.7c0-23.1-19.5-41.8-43.5-41.8-21.7,0-39.6,15.3-42.9,35.2" transform="translate(-336.3 -362.2)"/><path class="cls-1" d="M431.8,477.3a45,45,0,0,1-21.6,5.5,34.4,34.4,0,0,1-4.6-.3,43.3,43.3,0,0,1-27.2-13.1,40.5,40.5,0,0,1-11.7-28.5c0-23.1,19.5-41.8,43.5-41.8a49.1,49.1,0,0,1,8.6.8,43.9,43.9,0,0,1,28.1,18.6" transform="translate(-336.3 -362.2)"/><ellipse class="cls-1" cx="132.2" cy="83.4" rx="11.2" ry="10.7"/><polyline class="cls-1" points="117.4 132 117.2 144.2 127.9 152.3 115.1 159.2 127.9 166.4 115.1 173.3 128.2 180.2 115.1 186.6 128.2 194.3 117.7 200.7 117.9 207.4 131.5 218.5 147.2 207.4 147.7 131.7"/><polyline class="cls-1" points="42.1 107.2 37.1 114.8 41.8 127.3 26.9 127 33.9 139.7 19.1 139.4 26.4 152 11.6 151.1 18.5 164.4 6 164.8 2.5 170.8 7.9 187.4 27.4 185.4 69.3 120.3"/></svg>