<svg id="Layer_1" data-name="Layer 1" xmlns="http://www.w3.org/2000/svg" viewBox="0 0 522.8 584"><defs><style>.cls-1{fill:none;stroke:#1f1f1e;stroke-linecap:round;stroke-linejoin:round;stroke-width:13px;}</style></defs><title>4</title><path class="cls-1" d="M83.6,236.4,84.7,33.2s-3.2-19.4,23.4-19.4,311.6-2,311.6-2L514.6,110l3.2,165.3" transform="translate(-42.8 -5.3)"/><path class="cls-1" d="M419.7,11.8l-1.1,76.8s0,15.6,14.9,18.5,81.1,2.9,81.1,2.9" transform="translate(-42.8 -5.3)"/><line class="cls-1" x1="140" y1="66.8" x2="222.1" y2="66.8"/><line class="cls-1" x1="96.3" y1="107.1" x2="224.8" y2="106.9"/><line class="cls-1" x1="182.7" y1="223.8" x2="343" y2="223.4"/><line class="cls-1" x1="97.3" y1="165.5" x2="138.7" y2="165.5"/><line class="cls-1" x1="95.7" y1="65.6" x2="117.9" y2="65.5"/><line class="cls-1" x1="160.9" y1="165.5" x2="419" y2="164.5"/><path class="cls-1" d="M74.2,405.5l-14.7-7.7c-9.7-5.2-13.1-16.6-7.4-25.4l74.2-117.2c5.6-8.9,18.1-11.9,27.8-6.8l14.7,7.7c9.7,5.1,13.1,16.5,7.4,25.4L102,398.7C96.4,407.6,83.9,410.6,74.2,405.5Z" transform="translate(-42.8 -5.3)"/><path class="cls-1" d="M439.6,255.5l14.7-7.7c9.7-5.1,22.2-2.1,27.8,6.8l74.2,117.1c5.7,8.9,2.3,20.3-7.4,25.5l-14.7,7.7c-9.7,5.1-22.2,2.1-27.8-6.8L432.2,280.9C426.5,272,429.9,260.6,439.6,255.5Z" transform="translate(-42.8 -5.3)"/><path class="cls-1" d="M349,410.1l81,44h0l3.1,1.7s15.7,9.1,28.8-7.5c7.6-9.5,4.2-17.7,0-22.9a28.8,28.8,0,0,0-6.9-6.2l-154.3-91s-17.5,1.2-27,13.8-47.6,36.6-63.9,24.5c-11.4-8.3,10.5-40,27.3-59.8,7.4-8.7,13.8-15.2,15.9-16.2,58.4-14.9,98.5-10.3,133.7-2.3,22.3,5.1,39.3,1.2,48.7-2.4" transform="translate(-42.8 -5.3)"/><path class="cls-1" d="M430,454.1s6.9,29.2-26.4,31.5c-20.1-9.7-77.8-41.2-77.8-41.2" transform="translate(-42.8 -5.3)"/><path class="cls-1" d="M403.6,485.6s4.2,34.7-38.1,25.9c-41.4-18.7-62.7-30.5-62.7-30.5" transform="translate(-42.8 -5.3)"/><path class="cls-1" d="M172,496.2l-9.9-6.3c-6.7-4.3-8.3-12.6-3.6-18.6l43.1-55.9c4.6-6.1,13.8-7.5,20.4-3.3l9.9,6.4c6.6,4.2,8.2,12.5,3.6,18.6L192.4,493C187.7,499,178.6,500.4,172,496.2Z" transform="translate(-42.8 -5.3)"/><path class="cls-1" d="M208.6,519.1l-9.9-6.4c-6.6-4.2-8.2-12.6-3.6-18.6l37.6-48.7c4.6-6,13.7-7.5,20.4-3.2l9.9,6.3c6.6,4.3,8.2,12.6,3.5,18.6L229,515.8A15.7,15.7,0,0,1,208.6,519.1Z" transform="translate(-42.8 -5.3)"/><path class="cls-1" d="M247.6,538.4l-9.9-6.4c-6.6-4.2-8.2-12.6-3.5-18.6l24.5-31.9c4.7-6,13.8-7.4,20.4-3.2l9.9,6.3c6.7,4.3,8.3,12.6,3.6,18.6L268,535.1C263.4,541.1,254.3,542.6,247.6,538.4Z" transform="translate(-42.8 -5.3)"/><path class="cls-1" d="M142.7,463.7l-9.9-6.3c-6.6-4.3-8.2-12.6-3.6-18.6l18.6-24.1a15.7,15.7,0,0,1,20.4-3.3l9.9,6.4a12.6,12.6,0,0,1,3.6,18.6l-18.6,24.1C158.5,466.5,149.3,468,142.7,463.7Z" transform="translate(-42.8 -5.3)"/><line class="cls-1" x1="95.5" y1="421.8" x2="66.3" y2="382.1"/><path class="cls-1" d="M368.5,509.3l-1.5,2.5c-20.7,33.7-70.3,15-86.8,7.6" transform="translate(-42.8 -5.3)"/><path class="cls-1" d="M173,286.4c10.4,7,33.5,20,64.1,20.4" transform="translate(-42.8 -5.3)"/><path class="cls-1" d="M461.9,425.5a89.3,89.3,0,0,0,37.7-38" transform="translate(-42.8 -5.3)"/><path class="cls-1" d="M83.6,419.3V549.6s-6.4,32.1,33.1,33,128-1.9,128-1.9" transform="translate(-42.8 -5.3)"/><path class="cls-1" d="M407.9,581.7h90.7s20.3-1,20.3-25.3-2.2-111.8-2.2-111.8" transform="translate(-42.8 -5.3)"/></svg>