<svg id="Layer_1" data-name="Layer 1" xmlns="http://www.w3.org/2000/svg" viewBox="0 0 561.6 558.7"><defs><style>.cls-1{fill:none;stroke:#1f1f1e;stroke-linecap:round;stroke-linejoin:round;stroke-width:18.69px;}.cls-2{fill:#1f1f1e;}</style></defs><title>6</title><line class="cls-1" x1="352.1" y1="130.3" x2="202.2" y2="434.2"/><path class="cls-2" d="M219.5,209.3v76.9h-34V209.3h34m1-18.7h-36a17.6,17.6,0,0,0-17.6,17.6v79.1a17.6,17.6,0,0,0,17.6,17.6h36a17.6,17.6,0,0,0,17.6-17.6V208.2a17.6,17.6,0,0,0-17.6-17.6Z" transform="translate(-9.7 -24.1)"/><path class="cls-2" d="M395.5,330.1v77H361.6v-77h33.9m1-18.7h-36a17.6,17.6,0,0,0-17.6,17.7v79.1a17.6,17.6,0,0,0,17.6,17.6h36a17.6,17.6,0,0,0,17.7-17.6V329.1a17.7,17.7,0,0,0-17.7-17.7Z" transform="translate(-9.7 -24.1)"/><path class="cls-2" d="M290.5,42.8a261.9,261.9,0,0,1,185.4,76.4,259.5,259.5,0,0,1,0,368.6A262.5,262.5,0,0,1,49,404.9a259.9,259.9,0,0,1,0-202.8A262.1,262.1,0,0,1,290.5,42.8m0-18.7C135.4,24.1,9.7,149.2,9.7,303.5S135.4,582.8,290.5,582.8s280.8-125,280.8-279.3S445.6,24.1,290.5,24.1Z" transform="translate(-9.7 -24.1)"/></svg>